<?xml version="1.0" standalone="no"?><!DOCTYPE svg PUBLIC "-//W3C//DTD SVG 1.1//EN" "http://www.w3.org/Graphics/SVG/1.1/DTD/svg11.dtd"><svg t="1559525832332" class="icon" style="" viewBox="0 0 1024 1024" version="1.1" xmlns="http://www.w3.org/2000/svg" p-id="2039" xmlns:xlink="http://www.w3.org/1999/xlink" width="200" height="200"><defs><style type="text/css"></style></defs><path d="M512 174.08c-132.645926 0-240.165926 107.52-240.165926 240.165926 0 139.472593 173.795556 358.58963 225.754074 420.882963 7.49037 9.007407 21.428148 9.007407 28.918519 0C578.37037 772.93037 752.165926 553.718519 752.165926 414.245926 752.165926 281.6 644.645926 174.08 512 174.08zM522.334815 778.903704c-5.30963 6.542222-15.36 6.542222-20.66963 0C443.448889 706.939259 308.717037 528.118519 308.717037 415.099259c0-112.071111 91.211852-203.282963 203.282963-203.282963s203.282963 91.211852 203.282963 203.282963C715.282963 528.118519 580.551111 706.939259 522.334815 778.903704z" p-id="2040"></path><path d="M512.948148 298.192593c-63.051852-0.568889-114.346667 50.725926-113.777778 113.777778 0.474074 61.25037 50.631111 111.312593 111.881481 111.881481 63.051852 0.568889 114.346667-50.725926 113.777778-113.777778C624.260741 348.823704 574.198519 298.761481 512.948148 298.192593zM512 485.925926c-41.339259 0-74.903704-33.564444-74.903704-74.903704s33.564444-74.903704 74.903704-74.903704 74.903704 33.564444 74.903704 74.903704S553.339259 485.925926 512 485.925926z" p-id="2041"></path></svg>